<?xml version="1.0" encoding="utf-8"?>
<!-- Generator: Adobe Illustrator 22.0.1, SVG Export Plug-In . SVG Version: 6.00 Build 0)  -->
<svg version="1.1" id="Capa_1" xmlns="http://www.w3.org/2000/svg" xmlns:xlink="http://www.w3.org/1999/xlink" x="0px" y="0px"
	 viewBox="0 0 566.9 168.5" style="enable-background:new 0 0 566.9 168.5;" xml:space="preserve">
<style type="text/css">
	.st0{fill:#FFFFFF;}
</style>
<g>
	<path class="st0" d="M81.4,157.2c-4.2,2.5-8.8,4.4-13.8,5.7c-5.1,1.3-10.1,2-15.3,2c-10.4,0-18.8-3-25.3-8.9
		c-6.5-5.9-9.8-14.5-9.8-25.5V78.7H1.6v-22h15.6V25.9H49v30.7h30.3v22.2H49V125c0,8.6,3.4,12.9,10.2,12.9c4.7,0,9.9-1.4,15.6-4.2
		L81.4,157.2z"/>
	<path class="st0" d="M129,7c3.3,3.3,4.9,7.6,4.9,12.9c0,5.3-1.6,9.6-4.9,12.9c-3.3,3.3-7.4,5-12.6,5c-5,0-9.1-1.7-12.4-5.1
		c-3.3-3.4-4.9-7.7-4.9-12.8c0-5.3,1.6-9.6,4.9-12.9c3.3-3.3,7.4-5,12.4-5C121.6,2,125.8,3.7,129,7z M100.7,51.7h32v111.7h-32V51.7z
		"/>
	<path class="st0" d="M371.7,157.2c-4.2,2.5-8.8,4.4-13.8,5.7c-5.1,1.3-10.1,2-15.3,2c-10.4,0-18.8-3-25.3-8.9
		c-6.5-5.9-9.8-14.5-9.8-25.5V78.7H292v-22h15.6V25.9h31.8v30.7h30.3v22.2h-30.3V125c0,8.6,3.4,12.9,10.2,12.9
		c4.7,0,9.9-1.4,15.6-4.2L371.7,157.2z"/>
	<path class="st0" d="M419.4,7c3.3,3.3,4.9,7.6,4.9,12.9c0,5.3-1.6,9.6-4.9,12.9c-3.3,3.3-7.4,5-12.6,5c-5,0-9.1-1.7-12.4-5.1
		c-3.3-3.4-4.9-7.7-4.9-12.8c0-5.3,1.6-9.6,4.9-12.9c3.3-3.3,7.4-5,12.4-5C411.9,2,416.1,3.7,419.4,7z M391,51.7h32v111.7h-32V51.7z
		"/>
</g>
<g>
	<path class="st0" d="M195.6,107.5c0-10.8,8.8-19.6,19.6-19.6h8c10.8,0,19.6,8.8,19.6,19.6v57.4h31.9v-57.4
		c0-28.4-23.1-51.4-51.4-51.4h-8c-28.4,0-51.4,23.1-51.4,51.4v57.4h31.9V107.5z"/>
</g>
<g>
	<path class="st0" d="M486,107.1c0-10.8,8.8-19.6,19.6-19.6h8c10.8,0,19.6,8.8,19.6,19.6v57.4h31.9v-57.4
		c0-28.4-23.1-51.4-51.4-51.4h-8c-28.4,0-51.4,23.1-51.4,51.4v57.4H486V107.1z"/>
</g>
</svg>
